<?xml version="1.0" encoding="UTF-8"?>
<svg version="1.1" xmlns="http://www.w3.org/2000/svg" width="569" height="438">
<path d="M0 0 C1.82230479 1.28325657 3.31888048 2.55291932 4.76953125 4.24609375 C4.76953125 4.90609375 4.76953125 5.56609375 4.76953125 6.24609375 C5.75953125 6.57609375 6.74953125 6.90609375 7.76953125 7.24609375 C9.5234375 9.57421875 9.5234375 9.57421875 11.33203125 12.49609375 C11.93144531 13.45 12.53085937 14.40390625 13.1484375 15.38671875 C17.96904 23.88956461 17.92733131 32.15095299 17.9375 41.69921875 C17.9424926 43.34322662 17.9424926 43.34322662 17.94758606 45.02044678 C17.95263436 47.33345116 17.95499504 49.64646277 17.95483398 51.95947266 C17.95701535 55.47050186 17.97517969 58.981214 17.99414062 62.4921875 C17.99707613 64.74869685 17.99905987 67.00520768 18 69.26171875 C18.00718552 70.29854797 18.01437103 71.3353772 18.02177429 72.40362549 C17.9824409 85.15794452 15.99084716 97.70680142 6.76953125 107.24609375 C6.10953125 107.24609375 5.44953125 107.24609375 4.76953125 107.24609375 C4.27453125 108.73109375 4.27453125 108.73109375 3.76953125 110.24609375 C1.44140625 112 1.44140625 112 -1.48046875 113.80859375 C-2.434375 114.40800781 -3.38828125 115.00742187 -4.37109375 115.625 C-10.79405891 119.26643517 -17.13719966 121.03326088 -24.48046875 119.62109375 C-28.63800283 117.54232671 -31.29534894 114.93821531 -33.54296875 110.87109375 C-34.73884686 106.30501371 -34.66977335 102.61892061 -33.23046875 98.12109375 C-29.87618973 93.29931766 -25.10000768 91.16322606 -19.91796875 88.62109375 C-16.59539385 86.95914829 -16.59539385 86.95914829 -14.23046875 84.24609375 C-13.3936516 81.59354129 -12.81176037 78.97369291 -12.23046875 76.24609375 C-13.62265625 76.74109375 -13.62265625 76.74109375 -15.04296875 77.24609375 C-24.15796629 79.81887531 -34.86955084 78.85265534 -43.34765625 74.73046875 C-48.59669341 71.77868746 -53.30561758 68.88455422 -57.23046875 64.24609375 C-58.05546875 63.35921875 -58.88046875 62.47234375 -59.73046875 61.55859375 C-67.90390802 51.52285187 -68.83658806 40.77255941 -68.23046875 28.24609375 C-66.71142331 16.74749665 -59.89290683 7.42553067 -50.87890625 0.41796875 C-34.17813996 -10.35320951 -17.00518532 -9.91698188 0 0 Z M-31.29296875 23.99609375 C-32.30037109 24.48335937 -32.30037109 24.48335937 -33.328125 24.98046875 C-35.63354052 26.51425649 -36.83435291 27.84971198 -38.23046875 30.24609375 C-39.0512002 35.20745236 -39.00458075 39.75979871 -36.66796875 44.24609375 C-33.02357311 47.23636709 -29.82014959 49.30828163 -24.953125 49.19140625 C-20.95374727 48.53926146 -18.02690013 47.56516159 -15.23046875 44.55859375 C-12.97407366 40.82143938 -12.23046875 38.60699556 -12.23046875 34.24609375 C-13.54862689 30.29161932 -14.79223048 26.75865248 -18.23046875 24.24609375 C-22.96349658 21.94025968 -26.54615084 21.61811175 -31.29296875 23.99609375 Z " fill="#455147" transform="translate(427.23046875,184.75390625)"/>
<path d="M0 0 C4.18414048 2.55303487 7.0818014 5.47487574 9 10 C9.22705078 12.19824219 9.22705078 12.19824219 9.1953125 14.546875 C9.18886719 15.39121094 9.18242187 16.23554688 9.17578125 17.10546875 C9.15902344 17.97816406 9.14226562 18.85085937 9.125 19.75 C9.11597656 20.63816406 9.10695312 21.52632812 9.09765625 22.44140625 C9.07414577 24.62788058 9.04128499 26.81380094 9 29 C9.99 28.67 10.98 28.34 12 28 C22.30873807 27.1350729 33.98749261 26.29100955 43 32 C43.93070312 32.58265625 44.86140625 33.1653125 45.8203125 33.765625 C57.45317912 41.64495332 62.65462592 51.16493403 65.703125 64.69921875 C67.0995488 75.5215032 63.96595779 86.45560774 57.48828125 95.18359375 C50.8038816 103.34171931 41.34947005 110.98057343 30.55249023 112.29882812 C27.90191974 112.43749886 25.27896102 112.46736811 22.625 112.4375 C21.69469971 112.43065186 20.76439941 112.42380371 19.8059082 112.41674805 C13.16741555 112.26100799 7.76908921 111.47038055 2 108 C0.83017578 107.35224609 0.83017578 107.35224609 -0.36328125 106.69140625 C-4.28328963 104.40981242 -4.28328963 104.40981242 -6 103 C-6 102.34 -6 101.68 -6 101 C-6.99 100.67 -7.98 100.34 -9 100 C-9 99.34 -9 98.68 -9 98 C-9.99 97.67 -10.98 97.34 -12 97 C-13.5 95.06640625 -13.5 95.06640625 -15 92.5625 C-15.7425 91.35787109 -15.7425 91.35787109 -16.5 90.12890625 C-20.98411168 80.77532955 -21.46154852 71.79050987 -21.43359375 61.578125 C-21.43816477 60.10463218 -21.44347305 58.63114148 -21.44947815 57.15765381 C-21.45835753 54.08824935 -21.45604235 51.01910587 -21.44604492 47.94970703 C-21.43450828 44.02673838 -21.45486351 40.10466365 -21.48396206 36.18181229 C-21.50233927 33.14650823 -21.50202957 30.11141844 -21.49632454 27.07607269 C-21.49617179 25.6296538 -21.50217738 24.18321997 -21.51461601 22.73685455 C-21.52956599 20.71557093 -21.5161983 18.69413854 -21.50170898 16.67285156 C-21.50154282 15.52608948 -21.50137665 14.37932739 -21.50120544 13.19781494 C-20.70939244 8.14585174 -18.16803133 5.05407705 -14.4375 1.6875 C-9.69421371 -1.59631358 -5.41488656 -1.47270546 0 0 Z M13 60 C10.10774775 63.18889351 8.75222748 65.7446783 8.5 70 C8.75222748 74.2553217 10.10774775 76.81110649 13 80 C17.46288503 82.66056607 21.02804355 83.5597541 26.07421875 82.62890625 C29.61016545 81.47416504 31.54488669 79.74738871 34 77 C36.10535333 72.72658069 36.23811303 69.84039892 34.9375 65.25 C32.86434621 61.7724517 31.49923953 60.02178284 28 58 C22.01602279 56.55226358 18.45470271 56.748158 13 60 Z " fill="#48544A" transform="translate(169,149)"/>
<path d="M0 0 C0.74830078 0.67675781 0.74830078 0.67675781 1.51171875 1.3671875 C1.51171875 2.0271875 1.51171875 2.6871875 1.51171875 3.3671875 C2.10984375 3.60695312 2.70796875 3.84671875 3.32421875 4.09375 C9.69929694 7.80495623 12.76490101 17.44064197 14.81640625 24.1640625 C17.46527107 36.36669818 15.26362488 47.82980349 8.57421875 58.3046875 C6.1606618 61.66189078 3.5932709 64.59379057 0.51171875 67.3671875 C-0.43703125 68.2334375 -1.38578125 69.0996875 -2.36328125 69.9921875 C-10.4721007 76.15489028 -21.39654777 78.4651681 -31.48828125 77.3671875 C-41.57975734 75.32144945 -41.57975734 75.32144945 -45.48828125 73.3671875 C-50.33911804 72.97520069 -53.71728581 74.00300822 -58.17578125 75.8671875 C-64.19661458 78.3671875 -64.19661458 78.3671875 -67.48828125 78.3671875 C-66.74297172 72.98973918 -65.0746227 68.31564003 -63.1328125 63.26953125 C-62.22507208 59.18194862 -63.83662634 56.78414401 -65.54101562 53.078125 C-68.37866975 46.71070599 -69.10474981 41.29706708 -68.98828125 34.3671875 C-69.00375 33.44679687 -69.01921875 32.52640625 -69.03515625 31.578125 C-68.98772631 23.15931027 -66.51368562 15.22001164 -61.48828125 8.3671875 C-60.82828125 8.3671875 -60.16828125 8.3671875 -59.48828125 8.3671875 C-59.23691406 7.78066406 -58.98554688 7.19414062 -58.7265625 6.58984375 C-57.3336012 4.08954413 -55.84605719 2.65958874 -53.67578125 0.8046875 C-53.00933594 0.22589844 -52.34289062 -0.35289062 -51.65625 -0.94921875 C-36.32586523 -12.85443647 -15.32205417 -10.61815603 0 0 Z " fill="#9ED5CA" transform="translate(339.48828125,185.6328125)"/>
<path d="M0 0 C4.46488277 4.94326307 4.1522796 10.12295106 4.16113281 16.51293945 C4.16609772 17.37034729 4.17106262 18.22775513 4.17617798 19.11114502 C4.19077239 21.94519862 4.19759709 24.77919625 4.203125 27.61328125 C4.20887871 29.58619691 4.21463641 31.55911256 4.22039795 33.5320282 C4.2309002 37.66873434 4.23674794 41.80542108 4.24023438 45.94213867 C4.24571734 51.23482247 4.26974449 56.52724879 4.29820633 61.81985188 C4.31685813 65.89571372 4.32203967 69.97151386 4.32357025 74.04741478 C4.32659158 75.99819534 4.33460251 77.94897495 4.34775543 79.89971352 C4.36486897 82.63296559 4.36292274 85.36559258 4.35644531 88.09887695 C4.3656601 88.89964157 4.37487488 89.70040619 4.3843689 90.5254364 C4.34111278 96.3717392 3.29438031 101.1070857 -0.4375 105.8125 C-5.32550918 109.52738698 -10.03762333 109.73586294 -16 109 C-20.9974418 106.77891476 -22.8968477 103.97101002 -25.16734314 99.23913574 C-26.54236999 95.541488 -26.55807646 92.04962108 -26.51757812 88.140625 C-26.52809204 86.87067688 -26.52809204 86.87067688 -26.53881836 85.57507324 C-26.55630356 82.79970688 -26.54480964 80.02537521 -26.53125 77.25 C-26.53394764 75.30761521 -26.53783233 73.36523175 -26.54284668 71.42285156 C-26.5487289 67.36119673 -26.54021997 63.29989489 -26.52148438 59.23828125 C-26.49869568 54.0465281 -26.51182561 48.85560223 -26.53577423 43.66387939 C-26.55026674 39.65569895 -26.5456104 35.64771284 -26.53526306 31.63952637 C-26.53260532 29.72586976 -26.53583183 27.81219519 -26.54518127 25.89855957 C-26.55540397 23.21835974 -26.53976673 20.53947736 -26.51757812 17.859375 C-26.52567505 17.07784058 -26.53377197 16.29630615 -26.54211426 15.49108887 C-26.4385209 8.69573459 -24.40445318 3.34434185 -19.5 -1.4375 C-13.19701179 -5.37686763 -5.84989379 -4.51277521 0 0 Z " fill="#48534A" transform="translate(263,152)"/>
<path d="M0 0 C3.50536595 2.82376702 5.82096705 5.52540116 7.25 9.8125 C7.83767968 15.92436871 6.64746802 18.90504619 3.25 23.8125 C0.86387762 26.10317749 -0.37042436 26.77021306 -3.6953125 27.140625 C-4.74460938 27.11484375 -5.79390625 27.0890625 -6.875 27.0625 C-7.92945313 27.04703125 -8.98390625 27.0315625 -10.0703125 27.015625 C-12.75 26.8125 -12.75 26.8125 -14.75 25.8125 C-14.75 25.1525 -14.75 24.4925 -14.75 23.8125 C-15.74 23.8125 -16.73 23.8125 -17.75 23.8125 C-17.75 22.8225 -17.75 21.8325 -17.75 20.8125 C-18.41 20.8125 -19.07 20.8125 -19.75 20.8125 C-21.84024132 16.63201735 -21.1822265 11.36609746 -20.75 6.8125 C-16.65561596 -0.90383915 -7.88717716 -3.4058265 0 0 Z " fill="#49544A" transform="translate(137.75,234.1875)"/>
<path d="M0 0 C0.66 0 1.32 0 2 0 C3.62157705 3.2431541 3.13816984 6.80226402 3.12939453 10.36523438 C3.13114685 11.23038162 3.13289917 12.09552887 3.13470459 12.9868927 C3.13911744 15.85586535 3.13618709 18.72477669 3.1328125 21.59375 C3.1334857 23.5815024 3.13445586 25.56925472 3.13571167 27.55700684 C3.13718787 31.72665184 3.13503656 35.89627545 3.13037109 40.06591797 C3.12467386 45.41959079 3.12795327 50.77321348 3.13394356 56.12688446 C3.13755125 60.23256816 3.13640962 64.3382399 3.13381577 68.44392395 C3.13314707 70.41836045 3.13397291 72.39279803 3.13629532 74.36723328 C3.13882523 77.12310677 3.13497642 79.87889826 3.12939453 82.63476562 C3.13141876 83.45664871 3.13344299 84.2785318 3.13552856 85.12532043 C3.11426403 90.77147194 3.11426403 90.77147194 2 93 C1.34 93 0.68 93 0 93 C0 62.31 0 31.62 0 0 Z " fill="#505852" transform="translate(264,158)"/>
<path d="M0 0 C0.66 0.556875 1.32 1.11375 2 1.6875 C2 2.6775 2 3.6675 2 4.6875 C1.34 4.6875 0.68 4.6875 0 4.6875 C-0.33 4.0275 -0.66 3.3675 -1 2.6875 C-5.81913338 1.5753923 -8.53542663 1.70324517 -13 3.6875 C-13.99 3.3575 -14.98 3.0275 -16 2.6875 C-15.34 2.6875 -14.68 2.6875 -14 2.6875 C-14 1.6975 -14 0.7075 -14 -0.3125 C-9.05507354 -1.96080882 -4.73174999 -2.07014062 0 0 Z " fill="#606660" transform="translate(138,234.3125)"/>
<path d="M0 0 C0.7425 0.495 1.485 0.99 2.25 1.5 C5.06318188 3.31923475 5.06318188 3.31923475 9 3 C9 3.66 9 4.32 9 5 C11.31 5.33 13.62 5.66 16 6 C16 6.66 16 7.32 16 8 C8.46828078 7.82703776 3.29718136 6.12206799 -3 2 C-2.01 1.34 -1.02 0.68 0 0 Z " fill="#626963" transform="translate(381,254)"/>
<path d="M0 0 C0.66 0 1.32 0 2 0 C2 0.66 2 1.32 2 2 C2.78375 1.814375 3.5675 1.62875 4.375 1.4375 C7 1 7 1 9 2 C9 3.65 9 5.3 9 7 C8.67 5.68 8.34 4.36 8 3 C7.071875 3.33 6.14375 3.66 5.1875 4 C0.19095127 5.45989695 -4.8433358 5.16784802 -10 5 C-10 4.67 -10 4.34 -10 4 C-6.7 4 -3.4 4 0 4 C0 2.68 0 1.36 0 0 Z " fill="#7E847E" transform="translate(407,258)"/>
<path d="M0 0 C0 4.4429874 -2.0076107 6.94558637 -5 10.125 C-5.66 10.74375 -6.32 11.3625 -7 12 C-7.5775 12.5775 -8.155 13.155 -8.75 13.75 C-9.36875 14.36875 -9.36875 14.36875 -10 15 C-10 11.89448334 -9.4606285 10.64738916 -8 8 C-7.34 8 -6.68 8 -6 8 C-5.7525 7.4225 -5.505 6.845 -5.25 6.25 C-3.83316683 3.6997003 -2.12372463 1.98214299 0 0 Z " fill="#B5D9D1" transform="translate(286,186)"/>
<path d="M0 0 C3.68725859 0.99655638 4.79351462 1.6582311 6.8125 5 C8 8 8 8 8 10 C4.72847271 9.02738378 3.25454871 8.34232413 1.1875 5.5625 C0 3 0 3 0 0 Z " fill="#626A63" transform="translate(238,249)"/>
<path d="M0 0 C0.99 0 1.98 0 3 0 C3 4.62 3 9.24 3 14 C2.01 13.67 1.02 13.34 0 13 C0 8.71 0 4.42 0 0 Z " fill="#515C54" transform="translate(359,213)"/>
<path d="M0 0 C2.125 0.9375 2.125 0.9375 4 2 C-0.70330431 4.50842897 -5.78778188 4.62731121 -11 4 C-11.66 3.34 -12.32 2.68 -13 2 C-12.22914063 1.93941406 -11.45828125 1.87882812 -10.6640625 1.81640625 C-9.15972656 1.69072266 -9.15972656 1.69072266 -7.625 1.5625 C-6.62726563 1.48128906 -5.62953125 1.40007812 -4.6015625 1.31640625 C-2.02072387 1.15034374 -2.02072387 1.15034374 0 0 Z " fill="#404942" transform="translate(200,257)"/>
<path d="M0 0 C0.66 0 1.32 0 2 0 C2.3690205 9.41002278 2.3690205 9.41002278 0 14 C-1.53508028 11.56661348 -2.03088304 10.32875493 -1.7578125 7.421875 C-1.54898437 6.54015625 -1.34015625 5.6584375 -1.125 4.75 C-0.92132813 3.85796875 -0.71765625 2.9659375 -0.5078125 2.046875 C-0.34023438 1.37140625 -0.17265625 0.6959375 0 0 Z " fill="#576058" transform="translate(442,265)"/>
<path d="M0 0 C5.19591612 0.44033187 8.66335081 0.88303339 13 4 C12.67 4.66 12.34 5.32 12 6 C11.34 6 10.68 6 10 6 C10 5.34 10 4.68 10 4 C6.7 3.67 3.4 3.34 0 3 C0 2.01 0 1.02 0 0 Z " fill="#7A7F7A" transform="translate(250,148)"/>
<path d="M0 0 C0.66 0.33 1.32 0.66 2 1 C1.34 2.65 0.68 4.3 0 6 C0.66 6 1.32 6 2 6 C1 9 1 9 -1.0625 10.1875 C-1.701875 10.455625 -2.34125 10.72375 -3 11 C-2.88590407 9.54077307 -2.75834456 8.08259402 -2.625 6.625 C-2.55539062 5.81289063 -2.48578125 5.00078125 -2.4140625 4.1640625 C-2 2 -2 2 0 0 Z " fill="#3C463E" transform="translate(397,281)"/>
<path d="M0 0 C-3.74525799 3.74525799 -7.98270909 3.68909949 -13 4 C-8.93522219 0.68795882 -5.26054188 -1.94834884 0 0 Z " fill="#5C625C" transform="translate(393,180)"/>
<path d="M0 0 C0.66 0.33 1.32 0.66 2 1 C0.6062718 5.43458973 -1.60582235 7.87378374 -5 11 C-4.46884894 6.48521602 -2.63379708 3.65333143 0 0 Z " fill="#6E7470" transform="translate(438,281)"/>
<path d="M0 0 C0.33 0.66 0.66 1.32 1 2 C1.99 2.33 2.98 2.66 4 3 C4 3.66 4 4.32 4 5 C4.78375 4.79375 5.5675 4.5875 6.375 4.375 C7.674375 4.189375 7.674375 4.189375 9 4 C9.66 4.66 10.32 5.32 11 6 C9.02 6.66 7.04 7.32 5 8 C2.5 5.6875 2.5 5.6875 0 3 C0 2.01 0 1.02 0 0 Z " fill="#5F6861" transform="translate(396,296)"/>
<path d="M0 0 C0 4.66666667 0 9.33333333 0 14 C-0.66 14 -1.32 14 -2 14 C-3.013244 9.38411065 -2.99847037 5.62927172 -2 1 C-1.34 0.67 -0.68 0.34 0 0 Z " fill="#686E68" transform="translate(179,212)"/>
<path d="M0 0 C2.27795022 2.27795022 3.05219877 3.93787293 4 7 C3.625 9.3125 3.625 9.3125 3 11 C3 10.01 3 9.02 3 8 C2.01 8 1.02 8 0 8 C-1.125 2.25 -1.125 2.25 0 0 Z " fill="#747B74" transform="translate(440,201)"/>
<path d="M0 0 C1.8871875 0.0309375 1.8871875 0.0309375 3.8125 0.0625 C-0.03450632 2.14629509 -4.08804429 3.55936624 -8.1875 5.0625 C-7.875 3.125 -7.875 3.125 -7.1875 1.0625 C-4.43671116 0.14557039 -2.82801087 -0.04636083 0 0 Z " fill="#5D665E" transform="translate(400.1875,205.9375)"/>
<path d="M0 0 C4.5 3 4.5 3 9 6 C8.67 6.66 8.34 7.32 8 8 C1.23076923 4.55384615 1.23076923 4.55384615 0.0625 1.75 C0.041875 1.1725 0.02125 0.595 0 0 Z " fill="#636B65" transform="translate(214,183)"/>
<path d="M0 0 C-3.96 0.66 -7.92 1.32 -12 2 C-12 1.34 -12 0.68 -12 0 C-4.5 -2.25 -4.5 -2.25 0 0 Z " fill="#5D6A5F" transform="translate(418,303)"/>
<path d="M0 0 C0.99 0.33 1.98 0.66 3 1 C2.23883449 2.15227823 1.46567307 3.2966386 0.6875 4.4375 C0.25824219 5.07558594 -0.17101562 5.71367187 -0.61328125 6.37109375 C-2 8 -2 8 -5 9 C-5.33 8.34 -5.66 7.68 -6 7 C-5.01 7 -4.02 7 -3 7 C-3 5.68 -3 4.36 -3 3 C-2.34 3 -1.68 3 -1 3 C-0.67 2.01 -0.34 1.02 0 0 Z " fill="#656C65" transform="translate(225,241)"/>
<path d="M0 0 C0.66386719 0.08378906 1.32773437 0.16757813 2.01171875 0.25390625 C8.54720848 1.05425042 8.54720848 1.05425042 15 0 C14.67 0.66 14.34 1.32 14 2 C11.38672515 2.87109162 9.69288829 3.18879799 7 3.25 C6.319375 3.27578125 5.63875 3.3015625 4.9375 3.328125 C2.45670295 2.90799002 1.59104402 1.88936477 0 0 Z " fill="#707771" transform="translate(393,232)"/>
<path d="M0 0 C0 4.24645065 -1.81750806 6.38524772 -4 10 C-4.99 9.34 -5.98 8.68 -7 8 C-4.69 5.36 -2.38 2.72 0 0 Z " fill="#6B726C" transform="translate(372,189)"/>
<path d="M0 0 C-1 3 -1 3 -2.84765625 4.16796875 C-3.57855469 4.50441406 -4.30945313 4.84085937 -5.0625 5.1875 C-5.79597656 5.53167969 -6.52945312 5.87585938 -7.28515625 6.23046875 C-8.13400391 6.61138672 -8.13400391 6.61138672 -9 7 C-7.21625256 3.00308443 -4.72261474 0 0 0 Z " fill="#777D78" transform="translate(404,276)"/>
<path d="M0 0 C0.33 0 0.66 0 1 0 C1.33292585 4.24480464 1.43885872 6.35542625 -1 9.9375 C-1.66 10.618125 -2.32 11.29875 -3 12 C-2.40075776 7.80530429 -1.42500059 3.99000166 0 0 Z " fill="#BCDDD2" transform="translate(275,252)"/>
<path d="M0 0 C-2.03819846 2.03819846 -3.29417798 2.67841059 -5.9375 3.6875 C-6.62714844 3.95949219 -7.31679687 4.23148437 -8.02734375 4.51171875 C-10 5 -10 5 -13 4 C-11.40233897 3.13372601 -9.79660056 2.28233535 -8.1875 1.4375 C-7.29417969 0.96183594 -6.40085938 0.48617188 -5.48046875 -0.00390625 C-3 -1 -3 -1 0 0 Z " fill="#898D84" transform="translate(212,256)"/>
<path d="M0 0 C0.66 0 1.32 0 2 0 C0.82744291 3.33727786 -0.18868404 5.77437487 -3 8 C-3.66 8 -4.32 8 -5 8 C-3.63055898 5.05043472 -2.12169591 2.47531189 0 0 Z " fill="#636C64" transform="translate(264,251)"/>
<path d="M0 0 C0.33 0 0.66 0 1 0 C1.04898437 0.61488281 1.09796875 1.22976562 1.1484375 1.86328125 C1.22320312 2.67152344 1.29796875 3.47976562 1.375 4.3125 C1.44460938 5.11300781 1.51421875 5.91351563 1.5859375 6.73828125 C1.89564426 9.27224441 1.89564426 9.27224441 4 12 C3.01 12.33 2.02 12.66 1 13 C0.01 10.69 -0.98 8.38 -2 6 C-1.34 6 -0.68 6 0 6 C0 4.02 0 2.04 0 0 Z " fill="#797F7A" transform="translate(388,217)"/>
<path d="M0 0 C0.99 0 1.98 0 3 0 C3.33 0.99 3.66 1.98 4 3 C4.66 3.66 5.32 4.32 6 5 C5.625 7.125 5.625 7.125 5 9 C4.16094435 7.87926138 3.32892169 6.75325453 2.5 5.625 C2.0359375 4.99851563 1.571875 4.37203125 1.09375 3.7265625 C0 2 0 2 0 0 Z " fill="#757E78" transform="translate(363,238)"/>
<path d="M0 0 C2 1 2 1 2.625 2.625 C3.12095645 5.7660575 3.06103811 8.82601831 3 12 C0.79680323 7.59360646 -0.10924981 5.02549129 0 0 Z " fill="#6B726C" transform="translate(149,224)"/>
<path d="M0 0 C2 3.875 2 3.875 2 5 C-0.375 5.1875 -0.375 5.1875 -3 5 C-3.66 4.01 -4.32 3.02 -5 2 C-3.35 1.34 -1.7 0.68 0 0 Z " fill="#3D463D" transform="translate(196,201)"/>
<path d="M0 0 C0.66 0 1.32 0 2 0 C2.99 2.97 3.98 5.94 5 9 C4.34 9 3.68 9 3 9 C3 8.01 3 7.02 3 6 C2.34 6 1.68 6 1 6 C0.67 4.02 0.34 2.04 0 0 Z " fill="#727973" transform="translate(117,249)"/>
<path d="M0 0 C3.57104439 1.87949705 5.54744301 3.17053157 7 7 C5.68 6.67 4.36 6.34 3 6 C3 5.34 3 4.68 3 4 C2.34 4 1.68 4 1 4 C0.67 2.68 0.34 1.36 0 0 Z " fill="#565C56" transform="translate(221,190)"/>
<path d="M0 0 C0.66 0 1.32 0 2 0 C2 0.66 2 1.32 2 2 C2.66 2 3.32 2 4 2 C4 4.31 4 6.62 4 9 C1.3144406 6.3144406 0.93950026 3.62378672 0 0 Z " fill="#B8DCD6" transform="translate(272,232)"/>
<path d="M0 0 C0.66 0.33 1.32 0.66 2 1 C1.67 1.99 1.34 2.98 1 4 C-0.98 4.33 -2.96 4.66 -5 5 C-3.35 3.35 -1.7 1.7 0 0 Z " fill="#667567" transform="translate(378,184)"/>
<path d="M0 0 C9.41002278 -0.18451025 9.41002278 -0.18451025 14 1 C14 1.33 14 1.66 14 2 C8.65998179 3.33500455 5.16044765 2.512545 0 1 C0 0.67 0 0.34 0 0 Z " fill="#ADB4B1" transform="translate(397,177)"/>
<path d="M0 0 C-0.66 0.66 -1.32 1.32 -2 2 C-3.32 2 -4.64 2 -6 2 C-6.33 2.66 -6.66 3.32 -7 4 C-8.32 3.34 -9.64 2.68 -11 2 C-9.73392393 1.46770674 -8.46189588 0.94955456 -7.1875 0.4375 C-6.47980469 0.14746094 -5.77210938 -0.14257812 -5.04296875 -0.44140625 C-3 -1 -3 -1 0 0 Z " fill="#3A423B" transform="translate(411,233)"/>
<path d="M0 0 C0.33 0 0.66 0 1 0 C1 2.31 1 4.62 1 7 C-0.65 7.66 -2.3 8.32 -4 9 C-2.68 6.03 -1.36 3.06 0 0 Z " fill="#868B83" transform="translate(204,220)"/>
<path d="M0 0 C3.0916909 2.52956528 3.90931332 5.22454612 5 9 C4.01 8.67 3.02 8.34 2 8 C1.26953125 6.15234375 1.26953125 6.15234375 0.8125 3.9375 C0.65394531 3.20402344 0.49539063 2.47054687 0.33203125 1.71484375 C0.22246094 1.14894531 0.11289062 0.58304688 0 0 Z " fill="#B9DDD6" transform="translate(346,194)"/>
<path d="M0 0 C0.144375 0.61875 0.28875 1.2375 0.4375 1.875 C0.93152225 4.03258322 0.93152225 4.03258322 2 6 C0.68 6.33 -0.64 6.66 -2 7 C-2.33 6.01 -2.66 5.02 -3 4 C-1.5625 1.8125 -1.5625 1.8125 0 0 Z " fill="#636A64" transform="translate(242,152)"/>
</svg>
